<?xml version="1.0" encoding="UTF-8"?>
    <svg width="800" height="2900" version="1.1" xmlns="http://www.w3.org/2000/svg">
    <style>
        .row { font: 14px Arial; fill: #64748b; }
        .score { font: bold 14px Arial; fill: #64748b; }
    </style>
    <text x="400" y="40" text-anchor="middle" font-size="20px" font-weight="bold" fill="#64748b">Channel Performance Overview</text><rect x="150" y="80" width="500" height="30" fill="#eee" rx="5"/><rect x="150" y="80" width="376.85" height="30" fill="#22c55e" rx="5"/>
        <text x="140" y="100" text-anchor="end" class="row">sub_1.txt</text>
        <text x="660" y="100" text-anchor="start" class="score">75.4% (S:100%)</text><rect x="150" y="130" width="500" height="30" fill="#eee" rx="5"/><rect x="150" y="130" width="374.5" height="30" fill="#22c55e" rx="5"/>
        <text x="140" y="150" text-anchor="end" class="row">Hysteria2.txt</text>
        <text x="660" y="150" text-anchor="start" class="score">74.9% (S:100%)</text><rect x="150" y="180" width="500" height="30" fill="#eee" rx="5"/><rect x="150" y="180" width="381.95" height="30" fill="#22c55e" rx="5"/>
        <text x="140" y="200" text-anchor="end" class="row">Tuic.txt</text>
        <text x="660" y="200" text-anchor="start" class="score">76.4% (S:100%)</text><rect x="150" y="230" width="500" height="30" fill="#eee" rx="5"/><rect x="150" y="230" width="380.20000000000005" height="30" fill="#22c55e" rx="5"/>
        <text x="140" y="250" text-anchor="end" class="row">tuic</text>
        <text x="660" y="250" text-anchor="start" class="score">76.0% (S:100%)</text><rect x="150" y="280" width="500" height="30" fill="#eee" rx="5"/><rect x="150" y="280" width="270.95" height="30" fill="#eab308" rx="5"/>
        <text x="140" y="300" text-anchor="end" class="row">ndsphonemy_hys-tuic.txt</text>
        <text x="660" y="300" text-anchor="start" class="score">54.2% (S:100%)</text><rect x="150" y="330" width="500" height="30" fill="#eee" rx="5"/><rect x="150" y="330" width="415.25" height="30" fill="#22c55e" rx="5"/>
        <text x="140" y="350" text-anchor="end" class="row">hysteria2</text>
        <text x="660" y="350" text-anchor="start" class="score">83.0% (S:100%)</text><rect x="150" y="380" width="500" height="30" fill="#eee" rx="5"/><rect x="150" y="380" width="372.0" height="30" fill="#22c55e" rx="5"/>
        <text x="140" y="400" text-anchor="end" class="row">hysteria</text>
        <text x="660" y="400" text-anchor="start" class="score">74.4% (S:100%)</text><rect x="150" y="430" width="500" height="30" fill="#eee" rx="5"/><rect x="150" y="430" width="332.5" height="30" fill="#eab308" rx="5"/>
        <text x="140" y="450" text-anchor="end" class="row">hysteria</text>
        <text x="660" y="450" text-anchor="start" class="score">66.5% (S:100%)</text><rect x="150" y="480" width="500" height="30" fill="#eee" rx="5"/><rect x="150" y="480" width="254.05" height="30" fill="#eab308" rx="5"/>
        <text x="140" y="500" text-anchor="end" class="row">udp.txt</text>
        <text x="660" y="500" text-anchor="start" class="score">50.8% (S:100%)</text><rect x="150" y="530" width="500" height="30" fill="#eee" rx="5"/><rect x="150" y="530" width="75.0" height="30" fill="#ef4444" rx="5"/>
        <text x="140" y="550" text-anchor="end" class="row">6ca22ad3b96aa6601fbe4457dad107a2</text>
        <text x="660" y="550" text-anchor="start" class="score">15.0% (S:0%)</text><rect x="150" y="580" width="500" height="30" fill="#eee" rx="5"/><rect x="150" y="580" width="378.54999999999995" height="30" fill="#22c55e" rx="5"/>
        <text x="140" y="600" text-anchor="end" class="row">d2ddf60933dd08ad67d3585f72ed16c3</text>
        <text x="660" y="600" text-anchor="start" class="score">75.7% (S:100%)</text><rect x="150" y="630" width="500" height="30" fill="#eee" rx="5"/><rect x="150" y="630" width="381.45000000000005" height="30" fill="#22c55e" rx="5"/>
        <text x="140" y="650" text-anchor="end" class="row">subscribe?token=8bc38a0c131e9b3fcd3a9083824c23e9</text>
        <text x="660" y="650" text-anchor="start" class="score">76.3% (S:100%)</text><rect x="150" y="680" width="500" height="30" fill="#eee" rx="5"/><rect x="150" y="680" width="375.45000000000005" height="30" fill="#22c55e" rx="5"/>
        <text x="140" y="700" text-anchor="end" class="row">T,H</text>
        <text x="660" y="700" text-anchor="start" class="score">75.1% (S:100%)</text><rect x="150" y="730" width="500" height="30" fill="#eee" rx="5"/><rect x="150" y="730" width="370.20000000000005" height="30" fill="#22c55e" rx="5"/>
        <text x="140" y="750" text-anchor="end" class="row">Movaghat</text>
        <text x="660" y="750" text-anchor="start" class="score">74.0% (S:100%)</text><rect x="150" y="780" width="500" height="30" fill="#eee" rx="5"/><rect x="150" y="780" width="376.15000000000003" height="30" fill="#22c55e" rx="5"/>
        <text x="140" y="800" text-anchor="end" class="row">pooriared.txt</text>
        <text x="660" y="800" text-anchor="start" class="score">75.2% (S:100%)</text><rect x="150" y="830" width="500" height="30" fill="#eee" rx="5"/><rect x="150" y="830" width="379.09999999999997" height="30" fill="#22c55e" rx="5"/>
        <text x="140" y="850" text-anchor="end" class="row">POORIARED.txt</text>
        <text x="660" y="850" text-anchor="start" class="score">75.8% (S:100%)</text><rect x="150" y="880" width="500" height="30" fill="#eee" rx="5"/><rect x="150" y="880" width="393.8" height="30" fill="#22c55e" rx="5"/>
        <text x="140" y="900" text-anchor="end" class="row">POORIA--REDFREE8.txt#POORIA--REDFREE8</text>
        <text x="660" y="900" text-anchor="start" class="score">78.8% (S:100%)</text><rect x="150" y="930" width="500" height="30" fill="#eee" rx="5"/><rect x="150" y="930" width="394.4" height="30" fill="#22c55e" rx="5"/>
        <text x="140" y="950" text-anchor="end" class="row">Gozargah_Sub</text>
        <text x="660" y="950" text-anchor="start" class="score">78.9% (S:100%)</text><rect x="150" y="980" width="500" height="30" fill="#eee" rx="5"/><rect x="150" y="980" width="359.75" height="30" fill="#22c55e" rx="5"/>
        <text x="140" y="1000" text-anchor="end" class="row">mahsa.txt</text>
        <text x="660" y="1000" text-anchor="start" class="score">72.0% (S:100%)</text><rect x="150" y="1030" width="500" height="30" fill="#eee" rx="5"/><rect x="150" y="1030" width="285.95" height="30" fill="#eab308" rx="5"/>
        <text x="140" y="1050" text-anchor="end" class="row">sub_1.txt</text>
        <text x="660" y="1050" text-anchor="start" class="score">57.2% (S:100%)</text><rect x="150" y="1080" width="500" height="30" fill="#eee" rx="5"/><rect x="150" y="1080" width="292.6" height="30" fill="#eab308" rx="5"/>
        <text x="140" y="1100" text-anchor="end" class="row">sub_2.txt</text>
        <text x="660" y="1100" text-anchor="start" class="score">58.5% (S:100%)</text><rect x="150" y="1130" width="500" height="30" fill="#eee" rx="5"/><rect x="150" y="1130" width="280.2" height="30" fill="#eab308" rx="5"/>
        <text x="140" y="1150" text-anchor="end" class="row">sub_3.txt</text>
        <text x="660" y="1150" text-anchor="start" class="score">56.0% (S:100%)</text><rect x="150" y="1180" width="500" height="30" fill="#eee" rx="5"/><rect x="150" y="1180" width="333.5" height="30" fill="#eab308" rx="5"/>
        <text x="140" y="1200" text-anchor="end" class="row">sub_4.txt</text>
        <text x="660" y="1200" text-anchor="start" class="score">66.7% (S:100%)</text><rect x="150" y="1230" width="500" height="30" fill="#eee" rx="5"/><rect x="150" y="1230" width="77.30000000000001" height="30" fill="#ef4444" rx="5"/>
        <text x="140" y="1250" text-anchor="end" class="row">sub_1.txt</text>
        <text x="660" y="1250" text-anchor="start" class="score">15.5% (S:0%)</text><rect x="150" y="1280" width="500" height="30" fill="#eee" rx="5"/><rect x="150" y="1280" width="257.25" height="30" fill="#eab308" rx="5"/>
        <text x="140" y="1300" text-anchor="end" class="row">sub_2.txt</text>
        <text x="660" y="1300" text-anchor="start" class="score">51.5% (S:100%)</text><rect x="150" y="1330" width="500" height="30" fill="#eee" rx="5"/><rect x="150" y="1330" width="261.75" height="30" fill="#eab308" rx="5"/>
        <text x="140" y="1350" text-anchor="end" class="row">sub_3.txt</text>
        <text x="660" y="1350" text-anchor="start" class="score">52.4% (S:100%)</text><rect x="150" y="1380" width="500" height="30" fill="#eee" rx="5"/><rect x="150" y="1380" width="78.75" height="30" fill="#ef4444" rx="5"/>
        <text x="140" y="1400" text-anchor="end" class="row">sub_4.txt</text>
        <text x="660" y="1400" text-anchor="start" class="score">15.8% (S:0%)</text><rect x="150" y="1430" width="500" height="30" fill="#eee" rx="5"/><rect x="150" y="1430" width="75.0" height="30" fill="#ef4444" rx="5"/>
        <text x="140" y="1450" text-anchor="end" class="row">ArV2ray</text>
        <text x="660" y="1450" text-anchor="start" class="score">15.0% (S:0%)</text><rect x="150" y="1480" width="500" height="30" fill="#eee" rx="5"/><rect x="150" y="1480" width="75.0" height="30" fill="#ef4444" rx="5"/>
        <text x="140" y="1500" text-anchor="end" class="row">ConfigsHUB2</text>
        <text x="660" y="1500" text-anchor="start" class="score">15.0% (S:0%)</text><rect x="150" y="1530" width="500" height="30" fill="#eee" rx="5"/><rect x="150" y="1530" width="388.40000000000003" height="30" fill="#22c55e" rx="5"/>
        <text x="140" y="1550" text-anchor="end" class="row">configfa</text>
        <text x="660" y="1550" text-anchor="start" class="score">77.7% (S:100%)</text><rect x="150" y="1580" width="500" height="30" fill="#eee" rx="5"/><rect x="150" y="1580" width="75.0" height="30" fill="#ef4444" rx="5"/>
        <text x="140" y="1600" text-anchor="end" class="row">DirectVPN</text>
        <text x="660" y="1600" text-anchor="start" class="score">15.0% (S:0%)</text><rect x="150" y="1630" width="500" height="30" fill="#eee" rx="5"/><rect x="150" y="1630" width="391.70000000000005" height="30" fill="#22c55e" rx="5"/>
        <text x="140" y="1650" text-anchor="end" class="row">DailyV2RY</text>
        <text x="660" y="1650" text-anchor="start" class="score">78.3% (S:100%)</text><rect x="150" y="1680" width="500" height="30" fill="#eee" rx="5"/><rect x="150" y="1680" width="398.7" height="30" fill="#22c55e" rx="5"/>
        <text x="140" y="1700" text-anchor="end" class="row">v2rayfree</text>
        <text x="660" y="1700" text-anchor="start" class="score">79.7% (S:100%)</text><rect x="150" y="1730" width="500" height="30" fill="#eee" rx="5"/><rect x="150" y="1730" width="398.1" height="30" fill="#22c55e" rx="5"/>
        <text x="140" y="1750" text-anchor="end" class="row">ViProxys</text>
        <text x="660" y="1750" text-anchor="start" class="score">79.6% (S:100%)</text><rect x="150" y="1780" width="500" height="30" fill="#eee" rx="5"/><rect x="150" y="1780" width="75.0" height="30" fill="#ef4444" rx="5"/>
        <text x="140" y="1800" text-anchor="end" class="row">VlessConfig</text>
        <text x="660" y="1800" text-anchor="start" class="score">15.0% (S:0%)</text><rect x="150" y="1830" width="500" height="30" fill="#eee" rx="5"/><rect x="150" y="1830" width="75.0" height="30" fill="#ef4444" rx="5"/>
        <text x="140" y="1850" text-anchor="end" class="row">v2ray_configs_pool</text>
        <text x="660" y="1850" text-anchor="start" class="score">15.0% (S:0%)</text><rect x="150" y="1880" width="500" height="30" fill="#eee" rx="5"/><rect x="150" y="1880" width="75.0" height="30" fill="#ef4444" rx="5"/>
        <text x="140" y="1900" text-anchor="end" class="row">v2ray_free_conf</text>
        <text x="660" y="1900" text-anchor="start" class="score">15.0% (S:0%)</text><rect x="150" y="1930" width="500" height="30" fill="#eee" rx="5"/><rect x="150" y="1930" width="75.0" height="30" fill="#ef4444" rx="5"/>
        <text x="140" y="1950" text-anchor="end" class="row">vpnfail_vless</text>
        <text x="660" y="1950" text-anchor="start" class="score">15.0% (S:0%)</text><rect x="150" y="1980" width="500" height="30" fill="#eee" rx="5"/><rect x="150" y="1980" width="75.0" height="30" fill="#ef4444" rx="5"/>
        <text x="140" y="2000" text-anchor="end" class="row">VmessProtocol</text>
        <text x="660" y="2000" text-anchor="start" class="score">15.0% (S:0%)</text><rect x="150" y="2030" width="500" height="30" fill="#eee" rx="5"/><rect x="150" y="2030" width="75.0" height="30" fill="#ef4444" rx="5"/>
        <text x="140" y="2050" text-anchor="end" class="row">v2raybaz</text>
        <text x="660" y="2050" text-anchor="start" class="score">15.0% (S:0%)</text><rect x="150" y="2080" width="500" height="30" fill="#eee" rx="5"/><rect x="150" y="2080" width="75.0" height="30" fill="#ef4444" rx="5"/>
        <text x="140" y="2100" text-anchor="end" class="row">FreeV2rays</text>
        <text x="660" y="2100" text-anchor="start" class="score">15.0% (S:0%)</text><rect x="150" y="2130" width="500" height="30" fill="#eee" rx="5"/><rect x="150" y="2130" width="75.0" height="30" fill="#ef4444" rx="5"/>
        <text x="140" y="2150" text-anchor="end" class="row">PrivateVPNs</text>
        <text x="660" y="2150" text-anchor="start" class="score">15.0% (S:0%)</text><rect x="150" y="2180" width="500" height="30" fill="#eee" rx="5"/><rect x="150" y="2180" width="75.0" height="30" fill="#ef4444" rx="5"/>
        <text x="140" y="2200" text-anchor="end" class="row">pooriared</text>
        <text x="660" y="2200" text-anchor="start" class="score">15.0% (S:0%)</text><rect x="150" y="2230" width="500" height="30" fill="#eee" rx="5"/><rect x="150" y="2230" width="421.0" height="30" fill="#22c55e" rx="5"/>
        <text x="140" y="2250" text-anchor="end" class="row">prrofile_purple</text>
        <text x="660" y="2250" text-anchor="start" class="score">84.2% (S:100%)</text><rect x="150" y="2280" width="500" height="30" fill="#eee" rx="5"/><rect x="150" y="2280" width="75.0" height="30" fill="#ef4444" rx="5"/>
        <text x="140" y="2300" text-anchor="end" class="row">IP_CF_Config</text>
        <text x="660" y="2300" text-anchor="start" class="score">15.0% (S:0%)</text><rect x="150" y="2330" width="500" height="30" fill="#eee" rx="5"/><rect x="150" y="2330" width="75.0" height="30" fill="#ef4444" rx="5"/>
        <text x="140" y="2350" text-anchor="end" class="row">LonUp_M</text>
        <text x="660" y="2350" text-anchor="start" class="score">15.0% (S:0%)</text><rect x="150" y="2380" width="500" height="30" fill="#eee" rx="5"/><rect x="150" y="2380" width="447.75" height="30" fill="#22c55e" rx="5"/>
        <text x="140" y="2400" text-anchor="end" class="row">meli_proxyy</text>
        <text x="660" y="2400" text-anchor="start" class="score">89.5% (S:100%)</text><rect x="150" y="2430" width="500" height="30" fill="#eee" rx="5"/><rect x="150" y="2430" width="75.0" height="30" fill="#ef4444" rx="5"/>
        <text x="140" y="2450" text-anchor="end" class="row">shokhmiplus</text>
        <text x="660" y="2450" text-anchor="start" class="score">15.0% (S:0%)</text><rect x="150" y="2480" width="500" height="30" fill="#eee" rx="5"/><rect x="150" y="2480" width="443.2" height="30" fill="#22c55e" rx="5"/>
        <text x="140" y="2500" text-anchor="end" class="row">shadowproxy66</text>
        <text x="660" y="2500" text-anchor="start" class="score">88.6% (S:100%)</text><rect x="150" y="2530" width="500" height="30" fill="#eee" rx="5"/><rect x="150" y="2530" width="75.0" height="30" fill="#ef4444" rx="5"/>
        <text x="140" y="2550" text-anchor="end" class="row">moftconfig</text>
        <text x="660" y="2550" text-anchor="start" class="score">15.0% (S:0%)</text><rect x="150" y="2580" width="500" height="30" fill="#eee" rx="5"/><rect x="150" y="2580" width="383.9" height="30" fill="#22c55e" rx="5"/>
        <text x="140" y="2600" text-anchor="end" class="row">ZibaNabz</text>
        <text x="660" y="2600" text-anchor="start" class="score">76.8% (S:100%)</text><rect x="150" y="2630" width="500" height="30" fill="#eee" rx="5"/><rect x="150" y="2630" width="75.0" height="30" fill="#ef4444" rx="5"/>
        <text x="140" y="2650" text-anchor="end" class="row">nufilter</text>
        <text x="660" y="2650" text-anchor="start" class="score">15.0% (S:0%)</text><rect x="150" y="2680" width="500" height="30" fill="#eee" rx="5"/><rect x="150" y="2680" width="444.6" height="30" fill="#22c55e" rx="5"/>
        <text x="140" y="2700" text-anchor="end" class="row">Outline_Vpn</text>
        <text x="660" y="2700" text-anchor="start" class="score">88.9% (S:100%)</text><rect x="150" y="2730" width="500" height="30" fill="#eee" rx="5"/><rect x="150" y="2730" width="442.55" height="30" fill="#22c55e" rx="5"/>
        <text x="140" y="2750" text-anchor="end" class="row">zedmodeonVPN</text>
        <text x="660" y="2750" text-anchor="start" class="score">88.5% (S:100%)</text><rect x="150" y="2780" width="500" height="30" fill="#eee" rx="5"/><rect x="150" y="2780" width="75.0" height="30" fill="#ef4444" rx="5"/>
        <text x="140" y="2800" text-anchor="end" class="row">redv2ray_channel</text>
        <text x="660" y="2800" text-anchor="start" class="score">15.0% (S:0%)</text><rect x="150" y="2830" width="500" height="30" fill="#eee" rx="5"/><rect x="150" y="2830" width="443.9" height="30" fill="#22c55e" rx="5"/>
        <text x="140" y="2850" text-anchor="end" class="row">redfree8</text>
        <text x="660" y="2850" text-anchor="start" class="score">88.8% (S:100%)</text></svg>